# xmcd
#
# Track frame offsets:
#	182
#	22285
#	38520
#	57592
#	75715
#	97460
#	115965
#	131392
#	152367
#	170970
#	190615
#	205312
#	225167
#	242697
#
# Disc length: 3420 seconds
#
# Revision: 2
# Processed by: cddbd v1.5.2PL0 Copyright (c) Steve Scherf et al.
# Submitted via: EZCDAudioConverter 2.4.0.1
#
DISCID=b90d5a0e
DTITLE=Chitãozinho and Xororó - Minha Historia
DYEAR=1993
DGENRE=Sertanejo
TTITLE0=Evidencias
TTITLE1=Pensando em Minha Amada
TTITLE2=No Rancho Fundo
TTITLE3=Brincar de Ser Feliz
TTITLE4=Somos Assim
TTITLE5=Foge de Mim
TTITLE6=Fio de Cabelo
TTITLE7=Caipira
TTITLE8=Nuvem de Lagrimas
TTITLE9=A Minha Vida (Comme D'Habitude)
TTITLE10=Brigas
TTITLE11=Página Virada
TTITLE12=Cowboy do Asfalto
TTITLE13=Nascemos Pra Cantar (Shambala)
EXTD=
EXTT0=
EXTT1=
EXTT2=
EXTT3=
EXTT4=
EXTT5=
EXTT6=
EXTT7=
EXTT8=
EXTT9=
EXTT10=
EXTT11=
EXTT12=
EXTT13=
PLAYORDER=
